<svg xmlns="http://www.w3.org/2000/svg" version="1.1" xmlns:xlink="http://www.w3.org/1999/xlink" xmlns:svgjs="http://svgjs.dev/svgjs" width="1000" height="623" viewBox="0 0 1000 623"><g transform="matrix(1,0,0,1,-0.6060606060606233,0.2522267206477409)"><svg viewBox="0 0 396 247" data-background-color="#ff4136" preserveAspectRatio="xMidYMid meet" height="623" width="1000" xmlns="http://www.w3.org/2000/svg" xmlns:xlink="http://www.w3.org/1999/xlink"><defs></defs><g id="tight-bounds" transform="matrix(1,0,0,1,0.2400000000000091,-0.09999999999999432)"><svg viewBox="0 0 395.52 247.2" height="247.2" width="395.52"><g><svg></svg></g><g><svg viewBox="0 0 395.52 247.2" height="247.2" width="395.52"><g transform="matrix(4.335630561969822, 0, 0, 4.335630561969822, 2.656310468115066, 1.0000000000000142)"><svg xmlns="http://www.w3.org/2000/svg" xmlns:xlink="http://www.w3.org/1999/xlink" version="1.1" x="0" y="0" viewBox="4.920923233032227 21.644372940063477 90.0001449584961 56.55463409423828" enable-background="new 0 0 100 100" xml:space="preserve" height="56.55463409423828" width="90.0001449584961" class="icon-none" data-fill-palette-color="accent" id="none"><path d="M94.645 23.352c-1.666-3.521-12.609-1.071-19.149 2.594-3.776 2.116-6.524 5.078-7.751 7.977-4.104-5.902-10.532-9.458-17.801-9.458-7.346 0-13.85 3.378-17.958 9.187-1.282-2.81-3.98-5.655-7.639-7.705-6.542-3.665-17.484-6.116-19.15-2.594-1.667 3.52 4.492 13.419 11.032 17.085 4.203 2.355 8.64 3.075 11.872 2.236-0.421 1.962-0.669 4.04-0.669 6.249 0 14.838 14.453 29.276 22.512 29.276 8.061 0 22.467-13.707 22.467-28.544 0-2.482-0.305-4.825-0.83-7.029 3.246 0.909 7.757 0.206 12.032-2.188C90.153 36.771 96.312 26.872 94.645 23.352zM49.921 55.145c2.201 0 3.984 1.784 3.984 3.984h-7.969C45.937 56.929 47.721 55.145 49.921 55.145zM37.621 52.812c-2.558 0-4.632-2.072-4.632-4.63 0-2.559 2.074-4.632 4.632-4.632 2.56 0 4.632 2.074 4.632 4.632C42.253 50.739 40.18 52.812 37.621 52.812zM49.921 71.086c-3.11 0-5.629-2.522-5.629-5.63h11.259C55.551 68.565 53.03 71.086 49.921 71.086zM62.45 52.812c-2.558 0-4.632-2.072-4.632-4.63 0-2.559 2.074-4.632 4.632-4.632 2.559 0 4.632 2.074 4.632 4.632C67.082 50.739 65.009 52.812 62.45 52.812z" fill="#ffffff" data-fill-palette-color="accent"></path></svg></g><rect width="348.05760000000004" height="24.461090637601753" fill="#ff4136" y="111.36945468119912" x="23.731199999999973" data-fill-palette-color="quaternary"></rect><g transform="matrix(1,0,0,1,39.55199999999999,115.29206351056081)"><svg viewBox="0 0 316.416 16.61587297887837" height="16.61587297887837" width="316.416"><g><svg viewBox="0 0 316.416 16.61587297887837" height="16.61587297887837" width="316.416"><g><svg viewBox="0 0 316.416 16.61587297887837" height="16.61587297887837" width="316.416"><g><svg viewBox="0 0 316.416 16.61587297887837" height="16.61587297887837" width="316.416"><g><svg viewBox="0 0 316.416 16.61587297887837" height="16.61587297887837" width="316.416"><g transform="matrix(1,0,0,1,0,0)"><svg width="316.416" viewBox="0.30000001192092896 -35.54999923706055 686.4500122070312 36.04999923706055" height="16.61587297887837" data-palette-color="#374151"><path d="M13.05-34.05L21.2-10.1 25.35-24.5 22.35-34.05 19.5-34.05 19.5-35 35-35 35-34.05 32.05-34.05 39.5-10.4 45.5-34.05 40.45-34.05 40.45-35 50.45-35 50.45-34.05 47.15-34.05 37.95 0.5 33.5 0.5 26.1-22.1 19.6 0.5 15.25 0.5 2.65-34.05 0.3-34.05 0.3-35 16.55-35 16.55-34.05 13.05-34.05ZM51.8-34.05L51.8-35 67.4-35 67.4-34.05 64.5-34.05 64.5-18.55 74.45-18.55 74.45-34.05 71.5-34.05 71.5-35 87.15-35 87.15-34.05 84.2-34.05 84.2-0.95 87.15-0.95 87.15 0 71.5 0 71.5-0.95 74.45-0.95 74.45-17.25 64.5-17.25 64.5-0.95 67.4-0.95 67.4 0 51.8 0 51.8-0.95 54.75-0.95 54.75-34.05 51.8-34.05ZM89.45-34.05L89.45-35 104.7-35 104.7-34.05 101.95-34.05 101.95-0.95 104.7-0.95 104.7 0 89.45 0 89.45-0.95 92.2-0.95 92.2-34.05 89.45-34.05ZM108.24-35L137.74-35 138.24-22.45 137.29-22.45Q135.09-29.1 133.39-31.53 131.69-33.95 128.49-33.95L128.49-33.95 127.89-33.95 127.89-1.05 132.14-1.05 132.14 0 113.89 0 113.89-1.05 118.14-1.05 118.14-33.95 117.49-33.95Q114.29-33.95 112.54-31.43 110.79-28.9 108.69-22.45L108.69-22.45 107.74-22.45 108.24-35ZM141.14-33.9L141.14-35 167.14-35 167.64-25.1 166.74-25.1Q164.64-30.15 162.34-32.02 160.04-33.9 155.59-33.9L155.59-33.9 153.84-33.9 153.84-18.45 155.54-18.45Q157.89-18.45 159.49-20.23 161.09-22 161.74-25L161.74-25 162.49-25 162.49-10.2 161.64-10.2Q160.74-13.95 159.22-15.55 157.69-17.15 155.04-17.15L155.04-17.15 153.84-17.15 153.84-1.1 155.74-1.1Q160.34-1.1 163.56-3.85 166.79-6.6 167.99-10.9L167.99-10.9 168.99-10.9 168.59 0 141.14 0 141.14-1.1 144.09-1.1 144.09-33.9 141.14-33.9ZM181.34-33.9L181.34-35 199.34-35 199.34-33.9 194.04-33.9 194.04-1.1 195.84-1.1Q200.09-1.1 202.61-3.7 205.14-6.3 207.74-11.7L207.74-11.7 208.79-11.7 207.84 0 181.34 0 181.34-1.1 184.29-1.1 184.29-33.9 181.34-33.9ZM228.13-0.95L231.68-0.95 228.03-11.75 218.13-11.75 214.28-0.95 218.03-0.95 218.03 0 210.38 0 210.38-0.95 212.73-0.95 225.48-35.3 229.58-35.3 242.18-0.95 244.48-0.95 244.48 0 228.13 0 228.13-0.95ZM227.63-12.85L223.28-25.95 218.58-12.85 227.63-12.85ZM266.18-9.25L272.18-35 285.53-35 285.53-34.05 282.78-34.05 282.78-0.95 285.53-0.95 285.53 0 270.28 0 270.28-0.95 273.03-0.95 273.03-32.2 272.83-32.2 265.33 0 259.08 0 250.28-32.35 250.08-32.35 250.08-0.95 252.83-0.95 252.83 0 246.03 0 246.03-0.95 248.78-0.95 248.78-34.05 246.03-34.05 246.03-35 259.53-35 266.18-9.25ZM287.83-34.05L287.83-35 302.78-35Q309.73-35 313.2-33.13 316.68-31.25 316.68-26.8L316.68-26.8Q316.68-19.95 308.43-18.6L308.43-18.6 308.43-18.5Q318.43-17.25 318.43-9.8L318.43-9.8Q318.43-4.35 314.33-2.18 310.23 0 302.53 0L302.53 0 287.83 0 287.83-0.95 291.08-0.95 291.08-34.05 287.83-34.05ZM301.98-17.7L300.83-17.7 300.83-0.95 303.18-0.95Q305.93-0.95 307.03-2.85 308.13-4.75 308.13-8.45L308.13-8.45 308.13-11.1Q308.13-14.4 306.78-16.05 305.43-17.7 301.98-17.7L301.98-17.7ZM302.43-34.05L300.83-34.05 300.83-18.65 302.13-18.65Q304.73-18.65 305.75-20.23 306.78-21.8 306.78-25.05L306.78-25.05 306.78-27.4Q306.78-31.1 305.88-32.58 304.98-34.05 302.43-34.05L302.43-34.05ZM329.47-34.05L329.47-35 344.17-35Q351.72-35 355.42-32.83 359.12-30.65 359.12-25.05L359.12-25.05Q359.12-18.85 354.62-16.5L354.62-16.5Q350.42-14.35 342.87-14.35L342.87-14.35 342.47-14.35 342.47-0.95 348.72-0.95 348.72 0 329.47 0 329.47-0.95 332.72-0.95 332.72-34.05 329.47-34.05ZM343.82-34.05L342.47-34.05 342.47-15.3 343.52-15.3Q346.52-15.3 347.67-17.35 348.82-19.4 348.82-24L348.82-24 348.82-26.4Q348.82-30.65 347.75-32.35 346.67-34.05 343.82-34.05L343.82-34.05ZM376.82-17.7L376.82-17.7 374.17-17.7 374.17-0.95 377.42-0.95 377.42 0 361.17 0 361.17-0.95 364.42-0.95 364.42-34.05 361.17-34.05 361.17-35 376.27-35Q382.77-35 385.5-34.33 388.22-33.65 389.32-32.7L389.32-32.7Q391.72-30.75 391.72-26.5 391.72-22.25 389.62-20.43 387.52-18.6 383.22-18.25L383.22-18.25 383.22-18.1Q387.27-17.55 388.87-15.7 390.47-13.85 390.47-9.5L390.47-9.5 390.47-6.85Q390.47-4.25 390.75-3.35 391.02-2.45 391.92-2.45 392.82-2.45 393.35-3.28 393.87-4.1 394.32-6.75L394.32-6.75 395.17-6.65Q394.62-2.4 393.25-0.95 391.87 0.5 387.77 0.5 383.67 0.5 381.94-1.43 380.22-3.35 380.22-8.65L380.22-8.65 380.22-12.3Q380.22-15.1 379.5-16.4 378.77-17.7 376.82-17.7ZM375.82-34.05L374.17-34.05 374.17-18.65 375.77-18.65Q378.62-18.65 380-20.4 381.37-22.15 381.37-26.1L381.37-26.1 381.37-27.55Q381.37-31.5 380.05-32.77 378.72-34.05 375.82-34.05L375.82-34.05ZM420.27-15.45L420.27-15.45 420.27-19.15Q420.27-28.3 419.37-30.7L419.37-30.7Q418.37-33.45 416.52-34.1L416.52-34.1Q415.47-34.5 413.97-34.5 412.47-34.5 411.39-34.1 410.32-33.7 409.62-32.7 408.92-31.7 408.49-30.6 408.07-29.5 407.82-27.5L407.82-27.5Q407.52-24.6 407.52-18.95L407.52-18.95 407.52-15.35Q407.52-9.25 407.99-6.68 408.47-4.1 409.17-3L409.17-3Q410.72-0.55 413.97-0.55L413.97-0.55Q417.92-0.55 419.09-3.88 420.27-7.2 420.27-15.45ZM413.87 0.5Q405.52 0.5 401.39-4.03 397.27-8.55 397.27-17.13 397.27-25.7 401.69-30.63 406.12-35.55 414.22-35.55 422.32-35.55 426.44-30.88 430.57-26.2 430.57-17.6 430.57-9 426.39-4.25 422.22 0.5 413.87 0.5ZM468.31-18.1L468.31-18.1Q468.31-7.8 462.51-3.75L462.51-3.75Q457.17 0 447.81 0L447.81 0 433.67 0 433.67-0.95 436.97-0.95 436.97-34.05 433.67-34.05 433.67-35 449.12-35Q458.72-35 463.51-31.08 468.31-27.15 468.31-18.1ZM446.72-34.05L446.72-0.95 448.62-0.95Q453.67-0.95 455.84-4.53 458.01-8.1 458.01-16.5L458.01-16.5 458.01-19.4Q458.01-30.65 453.72-32.95L453.72-32.95Q451.67-34.05 447.92-34.05L447.92-34.05 446.72-34.05ZM483.41-10.65Q483.41-6.05 484.99-3.6 486.56-1.15 490.66-1.15 494.76-1.15 496.96-3.7 499.16-6.25 499.16-11.45L499.16-11.45 499.16-34.05 495.91-34.05 495.91-35 503.21-35 503.21-34.05 500.46-34.05 500.46-11.8Q500.46-5.6 497.71-2.55 494.96 0.5 487.99 0.5 481.01 0.5 477.34-2.4 473.66-5.3 473.66-12.35L473.66-12.35 473.66-34.05 470.91-34.05 470.91-35 486.66-35 486.66-34.05 483.41-34.05 483.41-10.65ZM523.01-34.55L523.01-34.55Q515.26-34.55 515.26-19.6L515.26-19.6 515.26-15.65Q515.26-8.55 517.31-4.53 519.36-0.5 523.36-0.5L523.36-0.5Q528.86-0.5 533.46-11.2L533.46-11.2 534.36-11.2 534.01-0.05 533.46-0.05Q533.16-0.6 532.91-0.83 532.66-1.05 532.18-1.05 531.71-1.05 528.56-0.28 525.41 0.5 522.16 0.5L522.16 0.5Q514.01 0.5 509.53-3.9 505.06-8.3 505.06-17.13 505.06-25.95 509.74-30.75 514.41-35.55 522.31-35.55L522.31-35.55Q525.36-35.55 528.28-34.77 531.21-34 531.71-34 532.21-34 532.46-34.23 532.71-34.45 533.01-35L533.01-35 533.56-35 533.96-24.15 533.06-24.15Q530.81-29.2 528.43-31.88 526.06-34.55 523.01-34.55ZM538.31-35L567.81-35 568.31-22.45 567.36-22.45Q565.16-29.1 563.46-31.53 561.76-33.95 558.56-33.95L558.56-33.95 557.96-33.95 557.96-1.05 562.21-1.05 562.21 0 543.96 0 543.96-1.05 548.21-1.05 548.21-33.95 547.56-33.95Q544.36-33.95 542.61-31.43 540.86-28.9 538.76-22.45L538.76-22.45 537.81-22.45 538.31-35ZM571.4-34.05L571.4-35 586.65-35 586.65-34.05 583.9-34.05 583.9-0.95 586.65-0.95 586.65 0 571.4 0 571.4-0.95 574.15-0.95 574.15-34.05 571.4-34.05ZM612.95-15.45L612.95-15.45 612.95-19.15Q612.95-28.3 612.05-30.7L612.05-30.7Q611.05-33.45 609.2-34.1L609.2-34.1Q608.15-34.5 606.65-34.5 605.15-34.5 604.08-34.1 603-33.7 602.3-32.7 601.6-31.7 601.18-30.6 600.75-29.5 600.5-27.5L600.5-27.5Q600.2-24.6 600.2-18.95L600.2-18.95 600.2-15.35Q600.2-9.25 600.68-6.68 601.15-4.1 601.85-3L601.85-3Q603.4-0.55 606.65-0.55L606.65-0.55Q610.6-0.55 611.78-3.88 612.95-7.2 612.95-15.45ZM606.55 0.5Q598.2 0.5 594.08-4.03 589.95-8.55 589.95-17.13 589.95-25.7 594.38-30.63 598.8-35.55 606.9-35.55 615-35.55 619.13-30.88 623.25-26.2 623.25-17.6 623.25-9 619.08-4.25 614.9 0.5 606.55 0.5ZM657.55-34.05L654.8-34.05 654.8 0 647.8 0 630.65-32.35 630.65-0.95 633.4-0.95 633.4 0 626.55 0 626.55-0.95 629.3-0.95 629.3-34.05 626.55-34.05 626.55-35 640.35-35 653.45-9.9 653.45-34.05 650.7-34.05 650.7-35 657.55-35 657.55-34.05ZM675.05-0.55L675.05-0.55Q677.55-0.55 679.47-1.9 681.4-3.25 681.4-5.98 681.4-8.7 679.32-10.15 677.25-11.6 673.42-12.68 669.6-13.75 667.87-14.55 666.15-15.35 664.6-16.65L664.6-16.65Q661.5-19.25 661.5-24.7L661.5-24.7Q661.5-29.15 664.67-32.35 667.85-35.55 673.35-35.55L673.35-35.55Q676-35.55 678.87-34.77 681.75-34 682.45-34 683.15-34 683.7-35L683.7-35 684.25-35 684.6-24.9 683.8-24.9Q681.4-29.25 678.77-31.88 676.15-34.5 673.07-34.5 670-34.5 668.3-33.08 666.6-31.65 666.6-29.28 666.6-26.9 668.62-25.63 670.65-24.35 673.6-23.55 676.55-22.75 677.47-22.45 678.4-22.15 679.77-21.63 681.15-21.1 682.02-20.53 682.9-19.95 683.87-19.07 684.85-18.2 685.4-17.15L685.4-17.15Q686.75-14.75 686.75-11.45L686.75-11.45Q686.75-6.05 683.37-2.78 680 0.5 674.5 0.5L674.5 0.5Q671.65 0.5 667.97-0.25 664.3-1 663.9-1L663.9-1Q663.2-1 662.55 0.5L662.55 0.5 661.85 0.5 661.35-11.4 662.2-11.4Q664.4-7.05 667.82-3.8 671.25-0.55 675.05-0.55Z" opacity="1" transform="matrix(1,0,0,1,0,0)" fill="#374151" class="undefined-text-0" data-fill-palette-color="primary" id="text-0"></path></svg></g></svg></g></svg></g></svg></g><g></g></svg></g></svg></g></svg></g></svg><rect width="395.52" height="247.2" fill="none" stroke="none" visibility="hidden"></rect></g></svg></g></svg>